<svg xmlns="http://www.w3.org/2000/svg" xmlns:xlink="http://www.w3.org/1999/xlink" width="1920" height="2532" viewBox="0 0 1920 2532">
  <defs>
    <clipPath id="clip-path">
      <rect id="Rectangle_794" data-name="Rectangle 794" width="1920" height="2532" fill="#f5841e"/>
    </clipPath>
  </defs>
  <g id="Group_3236" data-name="Group 3236" transform="translate(1920 2532) rotate(180)" opacity="0.16">
    <g id="Group_3235" data-name="Group 3235" clip-path="url(#clip-path)">
      <path id="Path_2902" data-name="Path 2902" d="M719.651,1358.528c0,42.931-.587,85.867.3,128.779.335,16.3-4.858,22.517-23.239,22.619-96.661.512-189.606-15.214-270.88-65.634-61.821-38.351-106.855-92.157-137.263-156.568-33.814-71.617-50.808-147.168-61.086-223.895a829.736,829.736,0,0,1,5.555-256.257c11.174-62.766,24.994-125.266,41.24-187.056,20.717-78.8,50.866-154.784,93-225.973,33.3-56.258,65.273-113.625,103.984-166.57C525.045,154.441,587.9,87.445,662.914,31.41c12.439-9.291,23.853-20,37.156-28.012,12.2-7.345,19.639-2.458,19.62,11.514C719.58,84.951,720.961,155.037,718.5,225c-.555,15.714-14.091,31.151-22.143,46.491-21.194,40.345-44.775,79.733-63.557,121.03-37.788,83.077-66.447,169.432-82.442,258.269-17.433,96.857-32.807,194.642-19.317,293.487,7.084,51.944,14.239,104.039,25.652,155.23,5.8,26.017,20.349,50.5,32.33,75.088,10.755,22.083,34.466,25.427,56.421,29.916,9.31,1.9,19.2,1.717,28.833,1.783,45.369.307,45.369.223,45.376,43.78q0,54.228-.007,108.45" transform="translate(1200.02 0)" fill="#f5841e"/>
      <path id="Path_2903" data-name="Path 2903" d="M1.619,527.271c-.348-5.694-1.09-12.322-1.1-18.95C.438,423.262,1.045,338.2.006,253.149-.22,234.941,6.064,227.59,24.949,225.9c53.389-4.778,105.4,1.193,157.792,11.261,88.842,17.07,166.838,54.987,233.963,109.558C506,419.328,553.754,514.473,560.96,624.574c4.555,69.55,4.916,139.9-.9,209.3-4.536,54.174-18.1,108.305-33.62,160.918-31.091,105.419-65.57,209.988-100.19,314.461-9.71,29.283-24.207,57.271-37.95,85.228-2.5,5.073-11.981,10.05-18.31,10.122-63.589.735-127.2.187-190.8.578-19.723.121-19.8-7.923-15.588-22.86,19.426-68.851,39.117-137.691,55.924-207.126,16.465-68,34.266-136.184,42.924-205.228,10.639-84.812,15.42-170.553,16.6-255.967.51-36.477-8.349-75.6-23.756-109.185-27.736-60.44-88.055-80.848-153.212-85.313-32.066-2.2-64.847,4.706-100.468,7.767" transform="translate(0.001 1126.817)" fill="#f5841e"/>
    </g>
  </g>
</svg>
